<?xml version="1.0" encoding="UTF-8" standalone="no"?>
<!-- Generator: Adobe Illustrator 18.1.0, SVG Export Plug-In . SVG Version: 6.00 Build 0)  -->

<svg
   xmlns:dc="http://purl.org/dc/elements/1.1/"
   xmlns:cc="http://creativecommons.org/ns#"
   xmlns:rdf="http://www.w3.org/1999/02/22-rdf-syntax-ns#"
   xmlns:svg="http://www.w3.org/2000/svg"
   xmlns="http://www.w3.org/2000/svg"
   xmlns:sodipodi="http://sodipodi.sourceforge.net/DTD/sodipodi-0.dtd"
   xmlns:inkscape="http://www.inkscape.org/namespaces/inkscape"
   version="1.1"
   x="0px"
   y="0px"
   viewBox="0 0 432.04999 488.39999"
   enable-background="new 0 0 1500 600"
   xml:space="preserve"
   id="svg42"
   sodipodi:docname="neo4j_logo.svg"
   width="432.04999"
   height="488.39999"
   inkscape:version="0.92.3 (2405546, 2018-03-11)"><metadata
   id="metadata48"><rdf:RDF><cc:Work
       rdf:about=""><dc:format>image/svg+xml</dc:format><dc:type
         rdf:resource="http://purl.org/dc/dcmitype/StillImage" /></cc:Work></rdf:RDF></metadata><defs
   id="defs46">
	
	
</defs><sodipodi:namedview
   pagecolor="#ffffff"
   bordercolor="#666666"
   borderopacity="1"
   objecttolerance="10"
   gridtolerance="10"
   guidetolerance="10"
   inkscape:pageopacity="0"
   inkscape:pageshadow="2"
   inkscape:window-width="640"
   inkscape:window-height="480"
   id="namedview44"
   showgrid="false"
   inkscape:zoom="1.5733333"
   inkscape:cx="704"
   inkscape:cy="245.64999"
   inkscape:current-layer="svg42" />
<g
   id="g26"
   transform="matrix(0.92635337,0,0,0.95843787,-26.702742,-44.721097)">
		<path
   style="fill:#008cc1"
   inkscape:connector-curvature="0"
   id="path2"
   d="m 458.8,278.8 c 0,114 -92.4,206.4 -206.4,206.4 C 138.4,485.2 46,392.8 46,278.8 46,164.8 138.4,72.4 252.4,72.4 c 114,-0.1 206.4,92.4 206.4,206.4" />
		<path
   style="fill:#ffffff"
   inkscape:connector-curvature="0"
   id="path4"
   d="m 137.5,211.1 c 0,9.1 -7.4,16.5 -16.5,16.5 -9.1,0 -16.5,-7.4 -16.5,-16.5 0,-9.1 7.4,-16.5 16.5,-16.5 9.2,0 16.5,7.4 16.5,16.5" />
		<path
   style="fill:#ffffff"
   inkscape:connector-curvature="0"
   id="path6"
   d="m 140.3,256.4 c 0,9.1 -7.4,16.5 -16.5,16.5 -9.1,0 -16.5,-7.4 -16.5,-16.5 0,-9.1 7.4,-16.5 16.5,-16.5 9.1,0 16.5,7.3 16.5,16.5" />
		<path
   style="fill:#ffffff"
   inkscape:connector-curvature="0"
   id="path8"
   d="m 150.4,304.4 c 0,9.1 -7.4,16.5 -16.5,16.5 -9.1,0 -16.5,-7.4 -16.5,-16.5 0,-9.1 7.4,-16.5 16.5,-16.5 9.1,-0.1 16.5,7.3 16.5,16.5" />
		<path
   style="fill:#ffffff"
   inkscape:connector-curvature="0"
   id="path10"
   d="m 173,347.4 c 0,9.1 -7.4,16.5 -16.5,16.5 -9.1,0 -16.5,-7.4 -16.5,-16.5 0,-9.1 7.4,-16.5 16.5,-16.5 9.1,-0.1 16.5,7.3 16.5,16.5" />
		<path
   style="fill:#ffffff"
   inkscape:connector-curvature="0"
   id="path12"
   d="m 349.7,407.5 c 0,9.1 -7.4,16.5 -16.5,16.5 -9.1,0 -16.5,-7.4 -16.5,-16.5 0,-9.1 7.4,-16.5 16.5,-16.5 9.1,0 16.5,7.4 16.5,16.5" />
		<path
   style="fill:#ffffff"
   inkscape:connector-curvature="0"
   id="path14"
   d="m 379.7,372 c 0,9.1 -7.4,16.5 -16.5,16.5 -9.1,0 -16.5,-7.4 -16.5,-16.5 0,-9.1 7.4,-16.5 16.5,-16.5 9.1,0 16.5,7.4 16.5,16.5" />
		<path
   style="fill:#ffffff"
   inkscape:connector-curvature="0"
   id="path16"
   d="m 292.7,121 c 0,9.1 -7.4,16.5 -16.5,16.5 -9.1,0 -16.5,-7.4 -16.5,-16.5 0,-9.1 7.4,-16.5 16.5,-16.5 9.1,0 16.5,7.4 16.5,16.5" />
		<path
   style="fill:#ffffff"
   inkscape:connector-curvature="0"
   id="path18"
   d="m 249.3,105.8 c 0,9.1 -7.4,16.5 -16.5,16.5 -9.1,0 -16.5,-7.4 -16.5,-16.5 0,-9.1 7.4,-16.5 16.5,-16.5 9.1,0 16.5,7.4 16.5,16.5" />
		<circle
   style="fill:#66b245;stroke:#ffffff;stroke-width:3.5;stroke-miterlimit:10"
   id="circle20"
   r="110"
   cy="229.60001"
   cx="366.29999"
   stroke-miterlimit="10" />
		<circle
   style="fill:#66b245;stroke:#ffffff;stroke-width:3.5;stroke-miterlimit:10"
   id="circle22"
   r="90"
   cy="453.89999"
   cx="215.60001"
   stroke-miterlimit="10" />
		<circle
   style="fill:#66b245;stroke:#ffffff;stroke-width:3.5;stroke-miterlimit:10"
   id="circle24"
   r="60"
   cy="119"
   cx="141.5"
   stroke-miterlimit="10" />
	</g>
<g
   id="Layer_2"
   transform="translate(-46,-57.25)">
</g>
</svg>