<?xml version="1.0" encoding="utf-8"?>
<!-- Generator: Adobe Illustrator 15.1.0, SVG Export Plug-In . SVG Version: 6.00 Build 0)  -->
<!DOCTYPE svg PUBLIC "-//W3C//DTD SVG 1.1//EN" "http://www.w3.org/Graphics/SVG/1.1/DTD/svg11.dtd">
<svg version="1.1" xmlns="http://www.w3.org/2000/svg" xmlns:xlink="http://www.w3.org/1999/xlink" x="0px" y="0px" width="42px"
	 height="42px" viewBox="0 0 42 42" enable-background="new 0 0 42 42" xml:space="preserve">
<g id="Layer_5">
	<g>
		<defs>
			<rect id="SVGID_1_" width="42" height="42"/>
		</defs>
		<clipPath id="SVGID_2_">
			<use xlink:href="#SVGID_1_"  overflow="visible"/>
		</clipPath>
		<path clip-path="url(#SVGID_2_)" fill="#3D6480" d="M39,0H3C1.344,0,0,1.344,0,3v36c0,1.657,1.344,3,3,3h36c1.656,0,3-1.343,3-3V3
			C42,1.344,40.656,0,39,0z M41,39c0,1.103-0.897,2-2,2H3c-1.104,0-2-0.897-2-2V3c0-1.103,0.896-2,2-2h36c1.103,0,2,0.897,2,2
			v12.259c0,0.008,0,0.015,0,0.023V39z"/>
		
			<rect x="0.091" y="28.912" transform="matrix(0.7009 0.7133 -0.7133 0.7009 20.8114 8.5515)" clip-path="url(#SVGID_2_)" fill="#FF00FF" width="0.237" height="0.355"/>
	</g>
</g>
<g id="Layer_9">
	<ellipse fill="#3F6380" cx="20.375" cy="19.542" rx="13.041" ry="13.124"/>
	
		<ellipse fill="#1DB24B" stroke="#FFFFFF" stroke-width="0.5" stroke-miterlimit="10" cx="27.458" cy="16.333" rx="7.208" ry="7.167"/>
	
		<ellipse fill="#1DB24B" stroke="#FFFFFF" stroke-width="0.5" stroke-miterlimit="10" cx="18.042" cy="30.582" rx="5.875" ry="5.834"/>
	<ellipse fill="#1DB24B" stroke="#FFFFFF" stroke-width="0.5" stroke-miterlimit="10" cx="13.092" cy="9.583" rx="4.075" ry="4"/>
	<ellipse fill="#FFFFFF" cx="18.99" cy="8.667" rx="1.052" ry="1.083"/>
	<ellipse fill="#FFFFFF" cx="21.705" cy="9.583" rx="1.052" ry="1.083"/>
	<ellipse fill="#FFFFFF" cx="11.928" cy="15.229" rx="1.052" ry="1.083"/>
	<ellipse fill="#FFFFFF" cx="12.115" cy="18.062" rx="1.052" ry="1.083"/>
	<ellipse fill="#FFFFFF" cx="12.761" cy="21.105" rx="1.052" ry="1.083"/>
	<ellipse fill="#FFFFFF" cx="14.22" cy="23.834" rx="1.052" ry="1.082"/>
	<ellipse fill="#FFFFFF" cx="27.199" cy="25.334" rx="1.053" ry="1.082"/>
	<ellipse fill="#FFFFFF" cx="25.304" cy="27.584" rx="1.052" ry="1.082"/>
</g>
<g id="Layer_7">
	
		<rect x="0.907" y="7.406" transform="matrix(0.707 -0.7072 0.7072 0.707 -4.4344 10.9608)" fill="#FFFFFF" width="20.208" height="6.851"/>
</g>
<g id="Layer_4">
	<rect x="4.202" y="10.417" fill="#3D6380" width="7.481" height="1.236"/>
	<rect x="10.448" y="4.171" fill="#3D6380" width="1.235" height="7.482"/>
	
		<rect x="1.095" y="6.394" transform="matrix(-0.707 -0.7072 0.7072 -0.707 7.0628 16.9487)" fill="#3D6380" width="11.894" height="1.234"/>
</g>
</svg>
