<?xml version="1.0" encoding="UTF-8" standalone="no"?>
<svg
   xmlns:dc="http://purl.org/dc/elements/1.1/"
   xmlns:cc="http://creativecommons.org/ns#"
   xmlns:rdf="http://www.w3.org/1999/02/22-rdf-syntax-ns#"
   xmlns:svg="http://www.w3.org/2000/svg"
   xmlns="http://www.w3.org/2000/svg"
   xmlns:sodipodi="http://sodipodi.sourceforge.net/DTD/sodipodi-0.dtd"
   xmlns:inkscape="http://www.inkscape.org/namespaces/inkscape"
   viewBox="0 0 533.33331 533.33331"
   height="533.33331"
   width="533.33331"
   xml:space="preserve"
   version="1.1"
   id="svg3718"
   sodipodi:docname="neo4j_check.svg"
   inkscape:version="0.92.3 (2405546, 2018-03-11)"><sodipodi:namedview
     pagecolor="#ffffff"
     bordercolor="#666666"
     borderopacity="1"
     objecttolerance="10"
     gridtolerance="10"
     guidetolerance="10"
     inkscape:pageopacity="0"
     inkscape:pageshadow="2"
     inkscape:window-width="1920"
     inkscape:window-height="1015"
     id="namedview30"
     showgrid="false"
     inkscape:zoom="2.5212123"
     inkscape:cx="155.60898"
     inkscape:cy="266.66666"
     inkscape:window-x="0"
     inkscape:window-y="0"
     inkscape:window-maximized="1"
     inkscape:current-layer="svg3718" /><metadata
     id="metadata3724"><rdf:RDF><cc:Work
         rdf:about=""><dc:format>image/svg+xml</dc:format><dc:label
           rdf:resource="http://purl.org/dc/dcmitype/StillImage" /><dc:title></dc:title><dc:type
           rdf:resource="http://purl.org/dc/dcmitype/StillImage" /></cc:Work></rdf:RDF></metadata><defs
     id="defs3722" /><g
     id="g3726"
     transform="matrix(1.3333333,0,0,-1.3333333,0,533.33333)"><g
       id="g3728"
       transform="scale(0.1)"><path
         d="m 3255.98,2150.96 c 0,-717.72 -581.83,-1299.55 -1299.55,-1299.55 -717.73,0 -1299.559,581.83 -1299.559,1299.55 0,717.72 581.829,1299.55 1299.559,1299.55 717.72,0 1299.55,-581.83 1299.55,-1299.55"
         style="fill:#208cc7;fill-opacity:1;fill-rule:nonzero;stroke:none"
         id="path3730" /><path
         d="m 1233.6,2576.83 c 0,-57.39 -46.56,-103.96 -103.96,-103.96 -57.43,0 -103.97,46.57 -103.97,103.96 0,57.45 46.54,103.97 103.97,103.97 57.4,0 103.96,-46.52 103.96,-103.97"
         style="fill:#ffffff;fill-opacity:1;fill-rule:nonzero;stroke:none"
         id="path3732" /><path
         d="m 1250.77,2291.94 c 0,-57.39 -46.56,-103.96 -103.96,-103.96 -57.43,0 -103.97,46.57 -103.97,103.96 0,57.45 46.54,103.96 103.97,103.96 57.4,0 103.96,-46.51 103.96,-103.96"
         style="fill:#ffffff;fill-opacity:1;fill-rule:nonzero;stroke:none"
         id="path3734" /><path
         d="m 1314.42,1989.87 c 0,-57.39 -46.56,-103.96 -103.96,-103.96 -57.43,0 -103.97,46.57 -103.97,103.96 0,57.45 46.54,103.97 103.97,103.97 57.4,0 103.96,-46.52 103.96,-103.97"
         style="fill:#ffffff;fill-opacity:1;fill-rule:nonzero;stroke:none"
         id="path3736" /><path
         d="m 1457.04,1719.15 c 0,-57.38 -46.56,-103.96 -103.96,-103.96 -57.43,0 -103.97,46.58 -103.97,103.96 0,57.46 46.54,103.97 103.97,103.97 57.4,0 103.96,-46.51 103.96,-103.97"
         style="fill:#ffffff;fill-opacity:1;fill-rule:nonzero;stroke:none"
         id="path3738" /><path
         d="m 2569.19,1340.59 c 0,-57.38 -46.56,-103.96 -103.97,-103.96 -57.43,0 -103.96,46.58 -103.96,103.96 0,57.46 46.53,103.97 103.96,103.97 57.41,0 103.97,-46.51 103.97,-103.97"
         style="fill:#ffffff;fill-opacity:1;fill-rule:nonzero;stroke:none"
         id="path3740" /><path
         d="m 2757.95,1564.02 c 0,-57.38 -46.56,-103.96 -103.97,-103.96 -57.43,0 -103.96,46.58 -103.96,103.96 0,57.46 46.53,103.97 103.96,103.97 57.41,0 103.97,-46.51 103.97,-103.97"
         style="fill:#ffffff;fill-opacity:1;fill-rule:nonzero;stroke:none"
         id="path3742" /><path
         d="m 2210.13,3143.99 c 0,-57.38 -46.56,-103.96 -103.96,-103.96 -57.43,0 -103.97,46.58 -103.97,103.96 0,57.45 46.54,103.97 103.97,103.97 57.4,0 103.96,-46.52 103.96,-103.97"
         style="fill:#ffffff;fill-opacity:1;fill-rule:nonzero;stroke:none"
         id="path3744" /><path
         d="m 1937.4,3239.81 c 0,-57.39 -46.56,-103.96 -103.96,-103.96 -57.43,0 -103.97,46.57 -103.97,103.96 0,57.45 46.54,103.97 103.97,103.97 57.4,0 103.96,-46.52 103.96,-103.97"
         style="fill:#ffffff;fill-opacity:1;fill-rule:nonzero;stroke:none"
         id="path3746" /><path
         d="m 3366.55,2460.28 c 0,-382.48 -310.06,-692.53 -692.53,-692.53 -382.48,0 -692.53,310.05 -692.53,692.53 0,382.47 310.05,692.52 692.53,692.52 382.47,0 692.53,-310.05 692.53,-692.52"
         style="fill:#59b734;fill-opacity:1;fill-rule:nonzero;stroke:none"
         id="path3748" /><path
         d="m 3366.55,2460.28 c 0,-382.48 -310.06,-692.53 -692.53,-692.53 -382.48,0 -692.53,310.05 -692.53,692.53 0,382.47 310.05,692.52 692.53,692.52 382.47,0 692.53,-310.05 692.53,-692.52 z"
         style="fill:none;stroke:#ffffff;stroke-width:50;stroke-linecap:butt;stroke-linejoin:miter;stroke-miterlimit:10;stroke-dasharray:none;stroke-opacity:1"
         id="path3750" /><path
         d="m 2291.31,1048.58 c 0,-312.932 -253.68,-566.611 -566.61,-566.611 -312.93,0 -566.62,253.679 -566.62,566.611 0,312.93 253.69,566.61 566.62,566.61 312.93,0 566.61,-253.68 566.61,-566.61"
         style="fill:#59b734;fill-opacity:1;fill-rule:nonzero;stroke:none"
         id="path3752" /><path
         d="m 2291.31,1048.58 c 0,-312.932 -253.68,-566.611 -566.61,-566.611 -312.93,0 -566.62,253.679 -566.62,566.611 0,312.93 253.69,566.61 566.62,566.61 312.93,0 566.61,-253.68 566.61,-566.61 z"
         style="fill:none;stroke:#ffffff;stroke-width:50;stroke-linecap:butt;stroke-linejoin:miter;stroke-miterlimit:10;stroke-dasharray:none;stroke-opacity:1"
         id="path3754" /><path
         d="m 1636.53,3156.59 c 0,-208.63 -169.12,-377.75 -377.74,-377.75 -208.63,0 -377.747,169.12 -377.747,377.75 0,208.62 169.117,377.74 377.747,377.74 208.62,0 377.74,-169.12 377.74,-377.74"
         style="fill:#59b734;fill-opacity:1;fill-rule:nonzero;stroke:none"
         id="path3756" /><path
         d="m 1636.53,3156.59 c 0,-208.63 -169.12,-377.75 -377.74,-377.75 -208.63,0 -377.747,169.12 -377.747,377.75 0,208.62 169.117,377.74 377.747,377.74 208.62,0 377.74,-169.12 377.74,-377.74 z"
         style="fill:none;stroke:#ffffff;stroke-width:50;stroke-linecap:butt;stroke-linejoin:miter;stroke-miterlimit:10;stroke-dasharray:none;stroke-opacity:1"
         id="path3758" /></g></g><polygon
     transform="matrix(19.60107,0,0,20.56549,-371.02954,-426.22829)"
     style="fill:#0c020f;fill-opacity:1"
     id="polygon2"
     points="27.184,34.905 30.859,38.58 39.125,30.314 37.782,28.971 30.859,35.893 28.528,33.562 " /></svg>